<svg width="20" height="20" viewBox="0 0 20 20" fill="none" xmlns="http://www.w3.org/2000/svg">
<g clip-path="url(#clip0)">
<path d="M7.23438 18.1953C7.70386 19.2567 8.76635 19.9995 9.99964 19.9995C11.2329 19.9995 12.2954 19.2567 12.7649 18.1953H7.23438Z" fill="#FF600E"/>
<path d="M9.99976 1.91081C10.8136 1.91081 11.595 2.0544 12.3202 2.3173V2.22797C12.3202 0.99946 11.3208 0 10.0923 0H9.90765C8.67915 0 7.67969 0.99946 7.67969 2.22797V2.31616C8.40447 2.05405 9.18568 1.91081 9.99976 1.91081Z" fill="#FF600E"/>
<path d="M17.3233 17.0233H2.6766C2.3995 17.0233 2.14568 16.8364 2.08805 16.5653C2.031 16.297 2.15331 16.0321 2.40146 15.9174C2.46034 15.8793 2.90357 15.5693 3.34731 14.6316C4.16229 12.9097 4.33335 10.484 4.33335 8.75231C4.33335 5.62782 6.87532 3.08594 9.99976 3.08594C13.1168 3.08594 15.6541 5.61558 15.6661 8.72981C15.6664 8.73728 15.6666 8.7448 15.6666 8.75231C15.6666 10.484 15.8376 12.9097 16.6526 14.6316C17.0963 15.5693 17.5395 15.8793 17.5985 15.9174C17.8466 16.0321 17.969 16.2969 17.9119 16.5653C17.8542 16.8364 17.6005 17.0233 17.3233 17.0233ZM17.605 15.9216H17.6054H17.605Z" fill="#FF600E"/>
</g>
<defs>
<clipPath id="clip0">
<rect width="20" height="20" fill="white"/>
</clipPath>
</defs>
</svg>
