<svg width="10" height="10" viewBox="0 0 10 10" fill="none" xmlns="http://www.w3.org/2000/svg">
<g opacity="0.5" clip-path="url(#clip0)">
<path d="M4.99993 3.63623C4.24765 3.63623 3.63629 4.24759 3.63629 4.99987C3.63629 5.75215 4.24765 6.3635 4.99993 6.3635C5.75221 6.3635 6.36356 5.75215 6.36356 4.99987C6.36356 4.24759 5.75219 3.63623 4.99993 3.63623Z" fill="#343434"/>
<path d="M5.00001 1.59082C2.72727 1.59082 0.786371 3.00444 0 4.99992C0.786371 6.99537 2.72727 8.40901 5.00001 8.40901C7.275 8.40901 9.21365 6.99537 10 4.99992C9.21365 3.00444 7.275 1.59082 5.00001 1.59082ZM5.00001 7.27263C3.74546 7.27263 2.72727 6.25444 2.72727 4.99989C2.72727 3.74535 3.74546 2.72718 5.00001 2.72718C6.25456 2.72718 7.27275 3.74537 7.27275 4.99992C7.27275 6.25446 6.25456 7.27263 5.00001 7.27263Z" fill="#343434"/>
</g>
<defs>
<clipPath id="clip0">
<rect width="10" height="10" fill="white"/>
</clipPath>
</defs>
</svg>
